<?xml version="1.0" encoding="us-ascii" standalone="no"?><svg xmlns="http://www.w3.org/2000/svg" xmlns:xlink="http://www.w3.org/1999/xlink" contentStyleType="text/css" height="804px" preserveAspectRatio="none" style="width:944px;height:804px;background:#FFFFFF;" version="1.1" viewBox="0 0 944 804" width="944px" zoomAndPan="magnify"><defs/><g><text fill="#000000" font-family="sans-serif" font-size="14" font-weight="bold" lengthAdjust="spacing" textLength="146" x="392.25" y="24.5332">Exit Condition States</text><g id="req_eval"><rect fill="#FF4500" height="52.7031" rx="12.5" ry="12.5" style="stroke:#181818;stroke-width:0.5;" width="240" x="167" y="45.6094"/><line style="stroke:#181818;stroke-width:0.5;" x1="167" x2="407" y1="73.2188" y2="73.2188"/><text fill="#000000" font-family="sans-serif" font-size="14" lengthAdjust="spacing" textLength="139" x="217.5" y="65.1426">Evaluation Requested</text><text fill="#000000" font-family="sans-serif" font-size="12" lengthAdjust="spacing" textLength="220" x="172" y="90.6758">The lab owner has requested evaluation</text></g><g id="eval"><rect fill="#FFFF00" height="52.7031" rx="12.5" ry="12.5" style="stroke:#181818;stroke-width:0.5;" width="304" x="28" y="176.6094"/><line style="stroke:#181818;stroke-width:0.5;" x1="28" x2="332" y1="204.2188" y2="204.2188"/><text fill="#000000" font-family="sans-serif" font-size="14" lengthAdjust="spacing" textLength="112" x="124" y="196.1426">Under Evalutation</text><text fill="#000000" font-family="sans-serif" font-size="12" lengthAdjust="spacing" textLength="284" x="33" y="221.6758">The coordinator is manually evaluating the condition</text></g><g id="unfullfilled"><rect fill="#FF0000" height="52.7031" rx="12.5" ry="12.5" style="stroke:#181818;stroke-width:0.5;" width="188" x="349" y="307.6094"/><line style="stroke:#181818;stroke-width:0.5;" x1="349" x2="537" y1="335.2188" y2="335.2188"/><text fill="#000000" font-family="sans-serif" font-size="14" lengthAdjust="spacing" textLength="61" x="412.5" y="327.1426">Unfulfilled</text><text fill="#000000" font-family="sans-serif" font-size="12" lengthAdjust="spacing" textLength="168" x="354" y="352.6758">This needs to be implemented</text></g><path d="M283,438.6094 L603,438.6094 A12.5,12.5 0 0 1 615.5,451.1094 L615.5,486.3125 L270.5,486.3125 L270.5,451.1094 A12.5,12.5 0 0 1 283,438.6094 " fill="#FFA500" style="stroke:#FFA500;stroke-width:1.0;"/><rect fill="none" height="229.4063" rx="12.5" ry="12.5" style="stroke:#181818;stroke-width:0.5;" width="345" x="270.5" y="438.6094"/><line style="stroke:#181818;stroke-width:0.5;" x1="270.5" x2="615.5" y1="486.3125" y2="486.3125"/><line style="stroke:#181818;stroke-width:0.5;" x1="270.5" x2="615.5" y1="466.2188" y2="466.2188"/><text fill="#000000" font-family="sans-serif" font-size="14" lengthAdjust="spacing" textLength="72" x="407" y="458.1426">In Progress</text><text fill="#000000" font-family="sans-serif" font-size="12" lengthAdjust="spacing" textLength="320" x="275.5" y="478.6758">There is a way to quantify the progress of this exit condition</text><g id="in_progress.calculated"><rect fill="#F1F1F1" height="52.7031" rx="12.5" ry="12.5" style="stroke:#181818;stroke-width:0.5;" width="266" x="305.5" y="498.3125"/><line style="stroke:#181818;stroke-width:0.5;" x1="305.5" x2="571.5" y1="525.9219" y2="525.9219"/><text fill="#000000" font-family="sans-serif" font-size="14" lengthAdjust="spacing" textLength="128" x="374.5" y="517.8457">Calculated Progress</text><text fill="#000000" font-family="sans-serif" font-size="12" lengthAdjust="spacing" textLength="246" x="310.5" y="543.3789">Update status and indicate Last calculated at</text></g><g id="in_progress.calculating"><rect fill="#F1F1F1" height="52.7031" rx="12.5" ry="12.5" style="stroke:#181818;stroke-width:0.5;" width="312" x="282.5" y="605.3125"/><line style="stroke:#181818;stroke-width:0.5;" x1="282.5" x2="594.5" y1="632.9219" y2="632.9219"/><text fill="#000000" font-family="sans-serif" font-size="14" lengthAdjust="spacing" textLength="64" x="406.5" y="624.8457">Assessing</text><text fill="#000000" font-family="sans-serif" font-size="12" lengthAdjust="spacing" textLength="292" x="287.5" y="650.3789">The assessment mechanism is calculating the result</text></g><!--link calculated to calculating--><g id="link_calculated_calculating"><path d="M354.93,551.4625 C348.13,556.4025 342.12,562.2925 337.5,569.3125 C327.68,584.2325 331.0364,593.0569 346.5664,602.2469 " fill="none" id="calculated-to-calculating" style="stroke:#181818;stroke-width:1.0;"/><polygon fill="#181818" points="351.73,605.3025,346.0216,597.2766,347.427,602.7561,341.9475,604.1615,351.73,605.3025" style="stroke:#181818;stroke-width:1.0;"/><text fill="#000000" font-family="sans-serif" font-size="13" lengthAdjust="spacing" textLength="187" x="338.5" y="583.8076">check based on specific triggers</text></g><!--link calculating to calculated--><g id="link_calculating_calculated"><path d="M512.2,605.0525 C526.92,595.6525 535.45,583.7225 526.5,569.3125 C522.18,562.3625 521.176,560.1111 514.616,555.1511 " fill="none" id="calculating-to-calculated" style="stroke:#181818;stroke-width:1.0;"/><polygon fill="#181818" points="509.83,551.5325,514.5965,560.1511,513.8183,554.548,519.4214,553.7698,509.83,551.5325" style="stroke:#181818;stroke-width:1.0;"/></g><g id="elem_GMN10"><path d="M388.5,750.6094 L388.5,793.3125 L937.5,793.3125 L937.5,760.6094 L927.5,750.6094 L388.5,750.6094 " fill="#FEFFDD" style="stroke:#181818;stroke-width:0.5;"/><path d="M927.5,750.6094 L927.5,760.6094 L937.5,760.6094 L927.5,750.6094 " fill="#FEFFDD" style="stroke:#181818;stroke-width:1.0;"/><text fill="#000000" font-family="sans-serif" font-size="13" lengthAdjust="spacing" textLength="528" x="394.5" y="769.1045">When an exit condition can be automatically be detected, the status will remain in progress</text><text fill="#000000" font-family="sans-serif" font-size="13" lengthAdjust="spacing" textLength="340" x="394.5" y="785.4561">but further metrics can be utillized to indicate the progress.</text></g><g id="verified"><rect fill="#008000" height="52.7031" rx="12.5" ry="12.5" style="stroke:#181818;stroke-width:0.5;" width="346" x="7" y="745.6094"/><line style="stroke:#181818;stroke-width:0.5;" x1="7" x2="353" y1="773.2188" y2="773.2188"/><text fill="#000000" font-family="sans-serif" font-size="14" lengthAdjust="spacing" textLength="48" x="156" y="765.1426">Verified</text><text fill="#000000" font-family="sans-serif" font-size="12" lengthAdjust="spacing" textLength="326" x="12" y="790.6758">The exit condition is verified either manually or automatically</text></g><ellipse cx="717" cy="203.1094" fill="#222222" rx="10" ry="10" style="stroke:#222222;stroke-width:1.0;"/><!--link in_progress to GMN10--><g id="link_in_progress_GMN10"><path d="M599.88,667.8894 C609.54,677.4494 618.7,687.3894 627,697.6094 C639.9,713.4894 649.68,734.7594 655.76,750.3394 " fill="none" id="in_progress-GMN10" style="stroke:#181818;stroke-width:1.0;stroke-dasharray:7.0,7.0;"/></g><!--link *start* to unfullfilled--><g id="link_*start*_unfullfilled"><path d="M709.34,210.0394 C702.05,215.5194 690.64,223.6894 680,229.6094 C624.97,260.2194 564.6762,286.1344 516.3662,305.3244 " fill="none" id="*start*-to-unfullfilled" style="stroke:#181818;stroke-width:1.0;"/><polygon fill="#181818" points="510.79,307.5394,520.6309,307.9343,515.4368,305.6935,517.6776,300.4994,510.79,307.5394" style="stroke:#181818;stroke-width:1.0;"/></g><!--link unfullfilled to in_progress--><g id="link_unfullfilled_in_progress"><path d="M443,360.8494 C443,380.4994 443,403.0594 443,432.1494 " fill="none" id="unfullfilled-to-in_progress" style="stroke:#181818;stroke-width:1.0;"/><polygon fill="#181818" points="443,438.1494,447,429.1494,443,433.1494,439,429.1494,443,438.1494" style="stroke:#181818;stroke-width:1.0;"/><text fill="#000000" font-family="sans-serif" font-size="13" lengthAdjust="spacing" textLength="201" x="444" y="405.1045">Progress is automatically detected</text></g><!--link in_progress to verified--><g id="link_in_progress_verified"><path d="M305.34,667.6894 C269.79,697.0194 239.4777,722.0304 215.5577,741.7704 " fill="none" id="in_progress-to-verified" style="stroke:#181818;stroke-width:1.0;"/><polygon fill="#181818" points="210.93,745.5894,220.4175,742.946,214.7864,742.4069,215.3255,736.7758,210.93,745.5894" style="stroke:#181818;stroke-width:1.0;"/><text fill="#000000" font-family="sans-serif" font-size="13" lengthAdjust="spacing" textLength="201" x="267" y="712.1045">Progress is automatically detected</text></g><!--link unfullfilled to req_eval--><g id="link_unfullfilled_req_eval"><path d="M447.89,307.5294 C454.38,265.6394 460.81,181.7794 421,128.6094 C411.57,116.0094 404.0293,109.1105 390.0493,101.5605 " fill="none" id="unfullfilled-to-req_eval" style="stroke:#181818;stroke-width:1.0;"/><polygon fill="#181818" points="384.77,98.7094,390.7882,106.5056,389.1694,101.0853,394.5897,99.4665,384.77,98.7094" style="stroke:#181818;stroke-width:1.0;"/><text fill="#000000" font-family="sans-serif" font-size="13" lengthAdjust="spacing" textLength="227" x="454" y="208.6045">The lab owner has requested evaluation</text></g><!--link req_eval to eval--><g id="link_req_eval_eval"><path d="M166.77,96.8694 C151.96,104.6594 138.67,114.9694 129,128.6094 C117.78,144.4494 125.2906,158.248 140.4106,172.408 " fill="none" id="req_eval-to-eval" style="stroke:#181818;stroke-width:1.0;"/><polygon fill="#181818" points="144.79,176.5094,140.9551,167.4378,141.1405,173.0916,135.4867,173.277,144.79,176.5094" style="stroke:#181818;stroke-width:1.0;"/><text fill="#000000" font-family="sans-serif" font-size="13" lengthAdjust="spacing" textLength="286" x="130" y="143.1045">The coordinator checks the specific exit condition</text></g><!--link eval to unfullfilled--><g id="link_eval_unfullfilled"><path d="M206.73,229.7794 C224.16,245.3794 248.06,264.7194 272,277.6094 C295.77,290.4094 317.2897,299.0576 342.9297,307.3276 " fill="none" id="eval-to-unfullfilled" style="stroke:#181818;stroke-width:1.0;"/><polygon fill="#181818" points="348.64,309.1694,341.3024,302.5998,343.8814,307.6345,338.8466,310.2135,348.64,309.1694" style="stroke:#181818;stroke-width:1.0;"/><text fill="#000000" font-family="sans-serif" font-size="13" lengthAdjust="spacing" textLength="143" x="273" y="274.1045">The coordinator rejects it</text></g><!--link eval to verified--><g id="link_eval_verified"><path d="M180,229.9494 C180,324.5094 180,645.1694 180,739.4494 " fill="none" id="eval-to-verified" style="stroke:#181818;stroke-width:1.0;"/><polygon fill="#181818" points="180,745.4494,184,736.4494,180,740.4494,176,736.4494,180,745.4494" style="stroke:#181818;stroke-width:1.0;"/><text fill="#000000" font-family="sans-serif" font-size="13" lengthAdjust="spacing" textLength="155" x="181" y="405.1045">The coordinator approves it</text></g><!--SRC=[bLJ1ZXCn3BtdAwpj3R5yG0z8QBL2I4YWXOK3GYitusa3cQHDd9Q2-7USp4msqnKIdDeuzlDxpywmOKjm-yCmt7ZN6JRUmGT6fgXKpBzmTNj4cx3StD4XKMJghW0Z13eya5p2wbr0jwKxwbIDhU7ZZi3Y1lp9KO3TM32M0rNCskRUTP9Mcd6vAJr6_3DPwq-g0TRUXyuuP1_0H1ZG9RJsN87T5hYaJQAQDdsolR5s4f7oUGh0AeY4HIHt4tn7r4LW3ni2C-mj3UH4HqLzu-1zyDj0CHPKunxsqtbsvvTgWaL4e4mTuOJd37r8wDZqvqAyLljUpf96UKQD79Wwtw3LoM8sTS50rxXg_g_XVj_bkboTfBdhX6jdT8wznSXDBY13RVCgHa4MMnVWSbRjOPmDbjpi40oaT-XC7BBI9h5e5Ax9ib9Do-lhbukqDUWTwU-mmIYtie5nJzhqHWC7izrIYAfDRyibN_rModcXl_7CViXUDZDGdtVan84BQmN0vJ5ZaXA1rMMl9D0HanROvuNyPE19raI436YSODUngKrYw5EGp20c25aTP-34KcD-2ZyPUZM_7VeBHJANpBmks2SA8dlQsUDqWDNhGEJKV1xjlv1Zcdmo8w7vjSZZMSXKwikphyN5zX4iNqI-RTTxNVUkRFF2jTcoTlKBG6NqJzLF2Vp_PwPMvFA_V4ZAhiLnlFEUNRox2l7aAx642lHDk8ieVYnfH5-curxiELB9L-eF]--></g></svg>