<?xml version="1.0" encoding="us-ascii" standalone="no"?><svg xmlns="http://www.w3.org/2000/svg" xmlns:xlink="http://www.w3.org/1999/xlink" contentStyleType="text/css" height="706px" preserveAspectRatio="none" style="width:608px;height:706px;background:#FFFFFF;" version="1.1" viewBox="0 0 608 706" width="608px" zoomAndPan="magnify"><defs/><g><text fill="#000000" font-family="sans-serif" font-size="14" font-weight="bold" lengthAdjust="spacing" textLength="191" x="201.5" y="24.5332">Virtual Lab Lifecycle (L0-L4)</text><ellipse cx="386" cy="54.6094" fill="#222222" rx="10" ry="10" style="stroke:#222222;stroke-width:1.0;"/><g id="dev"><rect fill="#F1F1F1" height="52.7031" rx="12.5" ry="12.5" style="stroke:#181818;stroke-width:0.5;" width="258" x="257" y="125.6094"/><line style="stroke:#181818;stroke-width:0.5;" x1="257" x2="515" y1="153.2188" y2="153.2188"/><text fill="#000000" font-family="sans-serif" font-size="14" lengthAdjust="spacing" textLength="98" x="337" y="145.1426">In Development</text><text fill="#000000" font-family="sans-serif" font-size="12" lengthAdjust="spacing" textLength="238" x="262" y="170.6758">Complete tasks required at the current level</text></g><g id="eval"><rect fill="#F1F1F1" height="52.7031" rx="12.5" ry="12.5" style="stroke:#181818;stroke-width:0.5;" width="270" x="111" y="256.6094"/><line style="stroke:#181818;stroke-width:0.5;" x1="111" x2="381" y1="284.2188" y2="284.2188"/><text fill="#000000" font-family="sans-serif" font-size="14" lengthAdjust="spacing" textLength="110" x="191" y="276.1426">Evaluation Phase</text><text fill="#000000" font-family="sans-serif" font-size="12" lengthAdjust="spacing" textLength="250" x="116" y="301.6758">Coordinator checks quality and exit conditions</text></g><g id="prog"><rect fill="#F1F1F1" height="52.7031" rx="12.5" ry="12.5" style="stroke:#181818;stroke-width:0.5;" width="232" x="318" y="387.6094"/><line style="stroke:#181818;stroke-width:0.5;" x1="318" x2="550" y1="415.2188" y2="415.2188"/><text fill="#000000" font-family="sans-serif" font-size="14" lengthAdjust="spacing" textLength="149" x="359.5" y="407.1426">Promotion to Next Level</text><text fill="#000000" font-family="sans-serif" font-size="12" lengthAdjust="spacing" textLength="212" x="323" y="432.6758">Exit conditions approved; lab promoted</text></g><g id="modification"><rect fill="#F1F1F1" height="52.7031" rx="12.5" ry="12.5" style="stroke:#181818;stroke-width:0.5;" width="191" x="60.5" y="387.6094"/><line style="stroke:#181818;stroke-width:0.5;" x1="60.5" x2="251.5" y1="415.2188" y2="415.2188"/><text fill="#000000" font-family="sans-serif" font-size="14" lengthAdjust="spacing" textLength="144" x="84" y="407.1426">Required Modifications</text><text fill="#000000" font-family="sans-serif" font-size="12" lengthAdjust="spacing" textLength="171" x="65.5" y="432.6758">Coordinator suggests changes</text></g><g id="maintenance"><rect fill="#F1F1F1" height="52.7031" rx="12.5" ry="12.5" style="stroke:#181818;stroke-width:0.5;" width="249" x="309.5" y="518.6094"/><line style="stroke:#181818;stroke-width:0.5;" x1="309.5" x2="558.5" y1="546.2188" y2="546.2188"/><text fill="#000000" font-family="sans-serif" font-size="14" lengthAdjust="spacing" textLength="159" x="354.5" y="538.1426">Operational Maintenance</text><text fill="#000000" font-family="sans-serif" font-size="12" lengthAdjust="spacing" textLength="229" x="314.5" y="563.6758">Maintain and monitor the lab in production</text></g><g id="elem_GMN15"><path d="M14,139.1094 L14,165.4609 A0,0 0 0 0 14,165.4609 L222,165.4609 A0,0 0 0 0 222,165.4609 L222,157.1094 L256.72,152.1094 L222,149.1094 L222,149.1094 L212,139.1094 L14,139.1094 A0,0 0 0 0 14,139.1094 " fill="#FEFFDD" style="stroke:#181818;stroke-width:0.5;"/><path d="M212,139.1094 L212,149.1094 L222,149.1094 L212,139.1094 " fill="#FEFFDD" style="stroke:#181818;stroke-width:0.5;"/><text fill="#000000" font-family="sans-serif" font-size="13" lengthAdjust="spacing" textLength="187" x="20" y="157.6045">Applies to labs in levels L0 to L3</text></g><g id="elem_GMN18"><path d="M6,532.1094 L6,558.4609 A0,0 0 0 0 6,558.4609 L274,558.4609 A0,0 0 0 0 274,558.4609 L274,550.1094 L309.37,545.1094 L274,542.1094 L274,542.1094 L264,532.1094 L6,532.1094 A0,0 0 0 0 6,532.1094 " fill="#FEFFDD" style="stroke:#181818;stroke-width:0.5;"/><path d="M264,532.1094 L264,542.1094 L274,542.1094 L264,532.1094 " fill="#FEFFDD" style="stroke:#181818;stroke-width:0.5;"/><text fill="#000000" font-family="sans-serif" font-size="13" lengthAdjust="spacing" textLength="247" x="12" y="550.6045">Only applies to L4 labs in operational state</text></g><!--link *start* to dev--><g id="link_*start*_dev"><path d="M386,64.7694 C386,78.5894 386,99.2794 386,119.3494 " fill="none" id="*start*-to-dev" style="stroke:#181818;stroke-width:1.0;"/><polygon fill="#181818" points="386,125.3494,390,116.3494,386,120.3494,382,116.3494,386,125.3494" style="stroke:#181818;stroke-width:1.0;"/></g><!--link dev to eval--><g id="link_dev_eval"><path d="M358.01,178.9094 C333.59,201.3994 302.7618,229.8029 278.3618,252.2929 " fill="none" id="dev-to-eval" style="stroke:#181818;stroke-width:1.0;"/><polygon fill="#181818" points="273.95,256.3594,283.2787,253.2009,277.6265,252.9707,277.8567,247.3185,273.95,256.3594" style="stroke:#181818;stroke-width:1.0;"/><text fill="#000000" font-family="sans-serif" font-size="13" lengthAdjust="spacing" textLength="104" x="326" y="223.1045">request evaluation</text></g><!--link eval to prog--><g id="link_eval_prog"><path d="M296.45,309.6894 C312.66,318.5494 330.45,328.9394 346,339.6094 C367.17,354.1394 384.8518,368.7187 401.6518,383.5487 " fill="none" id="eval-to-prog" style="stroke:#181818;stroke-width:1.0;"/><polygon fill="#181818" points="406.15,387.5194,402.0499,378.5645,402.4015,384.2105,396.7556,384.5621,406.15,387.5194" style="stroke:#181818;stroke-width:1.0;"/><text fill="#000000" font-family="sans-serif" font-size="13" lengthAdjust="spacing" textLength="47" x="370" y="354.1045">approval</text></g><!--link eval to modification--><g id="link_eval_modification"><path d="M120.39,309.7194 C106.96,317.2794 94.95,327.0294 86,339.6094 C73.74,356.8394 83.4525,370.6032 102.4425,384.0432 " fill="none" id="eval-to-modification" style="stroke:#181818;stroke-width:1.0;"/><polygon fill="#181818" points="107.34,387.5094,102.3045,379.0451,103.2587,384.6209,97.6829,385.5751,107.34,387.5094" style="stroke:#181818;stroke-width:1.0;"/><text fill="#000000" font-family="sans-serif" font-size="13" lengthAdjust="spacing" textLength="96" x="87" y="354.1045">request changes</text></g><!--link modification to eval--><g id="link_modification_eval"><path d="M173.97,387.3594 C189.65,364.8694 208.877,337.3202 224.567,314.8302 " fill="none" id="modification-to-eval" style="stroke:#181818;stroke-width:1.0;"/><polygon fill="#181818" points="228,309.9094,219.57,315.002,225.1392,314.0101,226.1311,319.5793,228,309.9094" style="stroke:#181818;stroke-width:1.0;"/><text fill="#000000" font-family="sans-serif" font-size="13" lengthAdjust="spacing" textLength="129" x="208" y="354.1045">resubmit for evaluation</text></g><!--link prog to dev--><g id="link_prog_dev"><path d="M440.89,387.4194 C450.23,347.5094 463.18,268.9394 439,208.6094 C434.54,197.4794 430.8571,191.6071 422.5271,183.0971 " fill="none" id="prog-to-dev" style="stroke:#181818;stroke-width:1.0;"/><polygon fill="#181818" points="418.33,178.8094,421.7671,188.039,421.8275,182.3825,427.4841,182.443,418.33,178.8094" style="stroke:#181818;stroke-width:1.0;"/><text fill="#000000" font-family="sans-serif" font-size="13" lengthAdjust="spacing" textLength="147" x="453" y="288.6045">move to next level (L0-L3)</text></g><!--link prog to maintenance--><g id="link_prog_maintenance"><path d="M434,440.9094 C434,463.3994 434,489.8694 434,512.3594 " fill="none" id="prog-to-maintenance" style="stroke:#181818;stroke-width:1.0;"/><polygon fill="#181818" points="434,518.3594,438,509.3594,434,513.3594,430,509.3594,434,518.3594" style="stroke:#181818;stroke-width:1.0;"/><text fill="#000000" font-family="sans-serif" font-size="13" lengthAdjust="spacing" textLength="85" x="435" y="485.1045">lab reaches L4</text></g><rect fill="#DDDDDD" height="98.0469" id="_legend" rx="7.5" ry="7.5" style="stroke:#000000;stroke-width:1.0;" width="324" x="12" y="588.3125"/><text fill="#000000" font-family="sans-serif" font-size="14" lengthAdjust="spacing" textLength="246" x="17" y="607.8457">&#171;development&#187;  Development activities</text><text fill="#000000" font-family="sans-serif" font-size="14" lengthAdjust="spacing" textLength="314" x="17" y="625.4551">&#171;evaluation&#187;   Quality assessment by Coordinator</text><text fill="#000000" font-family="sans-serif" font-size="14" lengthAdjust="spacing" textLength="305" x="17" y="643.0645">&#171;transition&#187;   Advancement to next maturity level</text><text fill="#000000" font-family="sans-serif" font-size="14" lengthAdjust="spacing" textLength="212" x="17" y="660.6738">&#171;feedback&#187;     Required revisions</text><text fill="#000000" font-family="sans-serif" font-size="14" lengthAdjust="spacing" textLength="301" x="17" y="678.2832">&#171;maintenance&#187;  Operational upkeep for L4 labs</text><!--SRC=[NLDDQ-Cm4BthLmmzjGk1GdFAba3fzh3WVkmUzhBiOMAD4n5PSYNPDFz-P-JOaLC8rFFrDE-zIIPPWZycf1ujLBY3oZHKdsgEtbRtgsfzfzJVR_zWjTg2fa6fc30HtFnqy8C6ihvhoQKRm2XfU7pKb-XsgoIsWMVVTfQuBM4yHWZqsPj06Z11EX3KVGXS3bPQPuIN0MsFoNW77mUCb368Wmn2SuunSan0VD36OV81wWFL3FJ9Ivbq0dGQwCiagBtJHjhY3FCHVEipIlBmHby9Adb6Hkk2tpDQ2kYYEQFbs0PUbkC0EquCfB-3PHAxF9JqZF9xMldLQzEOEhyzPf2sY31OGwHtM1yPQf5PBXZx_PvYYhmfElvl1dhlAEG6vkGLZKlaqDKZUUtbcu6ABy4gSfknat-PkTOx8vWYbIp7OTvFzxN0g2onkECiWuZBBuEBHAD0KdBcRkGAxILnjUaqOrfkaLvWnNxNiX0DFwy0p3Xdnt9PoyA8kaxKpIORlVrmTwbSxYzh1aAsKOHghPHZCRcpIU2RV0PFNMSD9tagrqRX90_cydi9LW-Ac3hfk-ekWDIxioTXOnfLhUTflj0nIrlCixIN3vcehWuEogi4P8a6DYXJkBmP0FWrtKQC56CktvrAZwcbyRdbIG_ox5mxqTbYweFC6O-tz2_8tspyG8E9-VAkh0TGUhRlZaHT5lJCXYm-Rgp-0m00]--></g></svg>